<svg version="1.2" xmlns="http://www.w3.org/2000/svg" viewBox="0 0 1024 167" width="1024" height="167">
	<defs>
		<filter id="thin-text">
			<feMorphology in="SourceGraphic" operator="erode" radius="1.5" />
		</filter>
	</defs>
	<style>
		.s0 { opacity: .99;fill: #fb0cd6 } 
		.s1 { opacity: .99;fill: #faaf28 } 
		.s2 { opacity: .99;fill: #ffffff; filter: url(#thin-text); } 
		.s3 { opacity: 1;fill: #01e4f2 } 
	</style>
	<g id="Logo">
		<path id="Path 0" class="s0" d="m122.99 58.33c-1.38 0.64-6.33 3.5-11 6.35-4.67 2.85-10.18 5.89-12.24 6.75-2.06 0.86-3.74 2.13-3.72 2.82 0.02 0.69-1.69 3.05-3.8 5.25-2.1 2.2-5.72 5.01-8.03 6.25-2.57 1.38-5.95 2.25-8.7 2.25-2.47 0-7.25-0.79-10.61-1.75l-6.11-1.75c-3.59 4.64-3.86 6.62-3.82 16.25 0.03 8.86 0.41 11.88 1.79 14.22 1.57 2.66 2.42 3.04 8.25 3.63 3.58 0.37 10.55 0.36 15.5-0.02 4.95-0.38 9.43-1.11 9.95-1.63 0.52-0.52 1.54-0.95 2.25-0.95 0.72 0 3.21-0.87 5.55-1.93 2.34-1.06 6.95-4.12 10.25-6.8 3.3-2.68 7.72-7.09 9.82-9.82 2.09-2.72 5.31-8.1 7.13-11.95 2.36-4.97 3.66-9.61 4.47-16 0.63-4.95 0.9-9.79 0.61-10.75-0.31-1.03-1.46-1.72-2.78-1.67-1.24 0.05-3.38 0.61-4.76 1.25z"/>
		<path id="Path 1" class="s1" d="m108.48 19c-1.09 0.43-6.93 1.29-12.98 1.92-8.68 0.91-12.04 1.72-15.92 3.87-2.7 1.49-5.35 3.39-5.88 4.21-0.54 0.82-0.68 2.74-0.33 4.25 0.55 2.42 1.3 2.87 6.13 3.75 3.03 0.55 5.5 1.45 5.5 2 0 0.55 0.56 1 1.25 1.01 0.69 0 3.05 1.95 5.25 4.32 2.28 2.46 4.81 6.66 5.87 9.75 1.23 3.58 1.7 6.95 1.36 9.92-0.28 2.47-0.78 5.29-1.12 6.25-0.37 1.06-0.11 1.76 0.64 1.76 0.69 0.01 5.53-2.53 10.75-5.65 5.22-3.11 11.19-6.49 13.25-7.51 2.06-1.02 4.76-1.84 6-1.84 2.16 0.01 2.22-0.22 1.52-5.75-0.4-3.17-1.5-7.78-2.43-10.26-0.93-2.48-3.17-6.75-4.96-9.5-1.8-2.75-5.21-6.86-7.59-9.14-3.36-3.22-4.77-3.97-6.31-3.36z"/>
		<path id="Path 2" class="s2" d="m918 8.2c-1.17 1.01-1.37 11.02-1.24 62.25 0.14 56.05 0.29 61.17 1.85 62.55 1.44 1.28 8.29 1.54 46.04 1.75 43.19 0.24 44.4 0.2 46.35-1.75 1.82-1.82 1.98-3.14 1.75-14.85-0.19-9.73-0.61-13.26-1.75-14.54-1.35-1.52-4.42-1.69-29.75-1.65l-28.25 0.04 0.5-15.04c25.85-0.88 34.08-1.64 35.5-2.31 2.46-1.15 2.5-1.4 2.75-14.16 0.14-7.15-0.18-13.66-0.71-14.49-0.79-1.23-4.31-1.55-19.5-1.75l-18.54-0.25v-15c42.67 0 55.05-0.42 56.5-1 1.37-0.55 2.7-1.79 2.95-2.75 0.25-0.96 0.7-6.36 1-12 0.43-7.97 0.22-10.92-0.95-13.25l-1.5-3c-79.98 0-91.96 0.3-93 1.2z"/>
		<path id="Path 3" fill-rule="evenodd" class="s2" d="m696.25 7.08c24.48-0.07 30.41 0.19 33.5 1.44 2.06 0.84 4.65 1.52 5.75 1.52 1.1-0.01 4.02 0.98 6.5 2.19 2.48 1.21 7.46 5.14 11.08 8.74 3.62 3.59 7.51 8.55 8.64 11.03 1.14 2.48 2.68 6.52 3.42 9 0.74 2.47 1.34 8.1 1.35 12.5 0.01 5.44-0.63 9.85-1.99 13.76-1.1 3.17-2.34 5.76-2.75 5.75-0.41 0-0.74 0.55-0.73 1.24 0.01 0.69-1.46 2.83-3.25 4.75-1.8 1.92-4.85 4.75-6.77 6.27-1.92 1.52-3.84 2.76-4.25 2.75-0.41-0.01-0.46 0.99-0.11 2.23 0.35 1.24 1.36 3.16 2.25 4.28 0.88 1.12 5.08 8.99 9.33 17.5 4.77 9.56 7.73 16.71 7.75 18.72 0.02 2.02-0.54 3.44-1.47 3.75-0.83 0.28-8.48 0.5-17 0.5-8.52 0-16.21-0.34-17.08-0.75-0.87-0.41-2.38-2.55-3.37-4.75-0.98-2.2-2.57-5.8-3.52-8-0.95-2.2-3.03-6.7-4.62-10-1.58-3.3-2.88-6.56-2.89-7.25-0.01-0.69-0.36-1.25-0.77-1.24-0.41 0.01-1.2-1.46-1.75-3.25-0.99-3.22-1.08-3.26-14.5-3.76l0.01 17.25c0 13.72-0.3 17.71-1.5 19.5-1.45 2.16-2.09 2.25-16.01 2.25-7.98 0-15.17-0.22-16-0.5-1.31-0.44-1.53-8.5-1.7-63.42-0.17-54.18 0-62.98 1.25-63.42 0.8-0.28 14.84-0.54 31.2-0.58zm2.75 32.92v23c5.89 1.77 10.28 2.01 14 1.69 3.58-0.32 8.08-0.94 10-1.38 1.92-0.45 4.51-1.48 5.75-2.31 1.24-0.83 2.26-2.06 2.25-2.75 0-0.69 0.51-2.04 1.14-3 0.87-1.35 0.75-2.79-0.51-6.25-0.9-2.47-2.87-5.46-4.38-6.63-2.11-1.64-4.62-2.25-10.75-2.63-4.4-0.27-10.14-0.32-12.75-0.11z"/>
		<path id="Path 4" class="s2" d="m434.05 7.66c-1.19 0.42-1.41 3.1-1.25 14.92 0.16 11.29 0.53 14.75 1.7 15.92 1.19 1.19 4.33 1.5 15 1.5h13.5c0.1 80.6 0.42 92.83 1.31 93.79 0.87 0.96 5.1 1.29 15.94 1.25 13.73-0.04 14.82-0.18 15.75-2.04 0.62-1.25 1-19.17 1-47.5v-45.5c22.46 0.01 26.04-0.34 27.75-1.49 2.15-1.44 2.25-2.12 2.27-15.26 0.01-9.78-0.35-14.12-1.25-15.02-0.99-0.98-11.09-1.24-45.77-1.17-24.48 0.05-45.15 0.32-45.95 0.6z"/>
		<path id="Path 5" class="s2" d="m312 7.98c-1.31 0.82-1.5 8.88-1.5 62.56 0 60.48 0.04 61.65 2 63.06 1.52 1.09 5.44 1.43 16.25 1.42l14.25-0.02c2.75-5.5 2.96-10.86 2.75-35-0.14-15.95 0.09-29 0.5-29 0.41 0 0.74 0.34 0.72 0.75-0.02 0.41 2.47 4.57 5.53 9.25 3.06 4.67 5.55 8.61 5.53 8.75-0.02 0.14 2.33 3.78 5.22 8.1 2.89 4.31 5.8 8.7 6.47 9.75 0.68 1.04 3.6 5.65 6.5 10.24 2.91 4.59 5.74 9.09 6.29 10 0.56 0.91 1.8 2.9 2.75 4.41l1.74 2.75c25.66 0.06 27.73-0.17 29.22-1.72 1.6-1.64 1.73-6.42 1.77-62.78 0.03-47.94-0.23-61.27-1.22-62.27-0.91-0.91-5.43-1.26-16.02-1.25-14.17 0.02-14.81 0.11-16.26 2.27-1.27 1.9-1.46 6.87-1.25 32 0.14 16.36 0.03 29.75-0.24 29.75-0.27 0-2.67-3.49-5.33-7.75-2.66-4.26-7.5-11.8-10.76-16.75-3.26-4.95-6.14-9.45-6.4-10-0.27-0.55-4.29-6.85-8.96-14-4.66-7.15-8.94-13.56-9.51-14.25-0.74-0.89-5-1.25-14.79-1.23-7.56 0-14.43 0.44-15.25 0.96z"/>
		<path id="Path 6" class="s2" d="m262 7.98c-1.3 0.82-1.54 8.93-1.76 61.23-0.21 47.75 0 60.81 1.02 62.79 1.29 2.48 1.4 2.5 16.52 2.75 12.44 0.2 15.49-0.02 16.72-1.25 1.3-1.3 1.5-9.65 1.52-62.75 0.01-48.11-0.26-61.52-1.25-62.52-0.92-0.91-5.46-1.25-16.27-1.23-8.25 0.02-15.68 0.46-16.5 0.98z"/>
		<path id="Path 7" fill-rule="evenodd" class="s2" d="m174.95 7.04c23.12 0.04 30.42 0.36 33.55 1.49 2.2 0.79 5.24 1.45 6.75 1.45 1.51 0.01 2.86 0.36 3 0.77 0.14 0.41 2.05 1.65 4.25 2.74 2.2 1.1 6.48 4.32 9.5 7.15 3.5 3.29 6.47 7.28 8.18 11.01 1.47 3.22 3.38 8.21 4.25 11.1 0.86 2.89 1.56 7.84 1.55 11-0.02 3.16-0.85 8.22-1.85 11.25-1.01 3.03-2.43 6.63-3.15 8-0.73 1.38-1.99 3.17-2.8 4-0.81 0.83-1.97 2.18-2.57 3.02-0.61 0.84-3.13 3.06-5.61 4.94-2.47 1.89-4.61 3.56-4.75 3.73-0.14 0.17 1.48 3.57 3.59 7.56 2.11 3.99 4.32 8.15 4.92 9.25 0.59 1.1 3.59 7.18 6.66 13.5 5.24 10.77 5.5 11.64 4.09 13.75-1.47 2.19-1.99 2.25-35.51 2.25l-2-3.5c-1.1-1.93-2.22-4.63-2.5-6-0.27-1.38-0.95-2.5-1.5-2.5-0.55 0-1-0.68-1-1.5 0-0.82-0.65-2.74-1.44-4.25-0.8-1.51-3.39-6.92-10.06-21.27l-12.5 0.02-0.25 17.85c-0.2 14.18-0.56 18.2-1.75 19.54-1.28 1.45-3.6 1.7-16 1.67-10.34-0.02-14.86-0.39-15.77-1.29-0.99-0.99-1.3-14.68-1.45-62.82-0.15-51.68 0.04-61.74 1.22-62.75 1.02-0.88 9.36-1.19 30.95-1.16zm2.94 33.46l-0.39 22.42c7.75 1.82 12.25 2.07 15 1.75 2.75-0.33 7.05-0.95 9.55-1.38 2.51-0.44 5.32-1.58 6.25-2.54 0.94-0.96 1.98-3.44 2.32-5.5 0.34-2.06 0.13-5.33-0.47-7.25-0.6-1.93-2.35-4.47-3.87-5.65-2.17-1.67-4.64-2.25-11.28-2.65-4.67-0.29-10.44-0.22-12.8 0.14z"/>
		<path id="Path 8" class="s2" d="m543.57 7.26c-1.81 1.21-1.87 2.95-1.41 43.25 0.27 23.15 0.94 43.78 1.49 45.99 0.56 2.2 2.33 6.7 3.93 10 1.8 3.7 5.44 8.49 9.49 12.5 3.88 3.84 9.2 7.83 13 9.75 3.54 1.79 7.33 3.27 8.43 3.29 1.1 0.02 3.12 0.67 4.5 1.46 1.64 0.94 5.6 1.44 11.5 1.47 5.8 0.03 10.78-0.55 14-1.62 2.75-0.91 6.57-2.28 8.5-3.06 1.92-0.77 4.85-2.15 6.5-3.06 1.65-0.91 4.08-2.57 5.41-3.69 1.32-1.12 3.68-3.28 5.25-4.79 1.56-1.51 4.41-5.22 6.34-8.25 1.92-3.03 3.49-6.06 3.48-6.75-0.01-0.69 0.56-1.84 1.25-2.56 0.7-0.72 1.67-3.87 2.16-7 0.5-3.13 1.08-23.69 1.3-45.69l0.4-40c-4.21-2.07-9.84-2.49-18.84-2.48-7.56 0-14.43 0.44-15.25 0.96-1.28 0.8-1.58 6.92-2.04 41.23-0.30 22.16-0.93 41.41-1.4 42.79-0.47 1.37-2.82 4.41-5.21 6.75-4.24 4.14-4.52 4.25-11.1 4.28-6.37 0.03-6.96-0.16-10.5-3.5-2.06-1.94-4.65-5.56-5.75-8.03-1.89-4.25-2-6.67-2-43.5v-39c-3.88-1.55-10.97-2-18.28-2-9.01 0-13.88 0.4-15.15 1.26z"/>
		<path id="Path 9" class="s2" d="m833.5 5.48c-2.2 0.82-4.9 1.51-6 1.54-1.1 0.02-2.9 0.71-4 1.53-1.1 0.82-2.56 1.48-3.25 1.47-0.69-0.01-3.84 1.54-7 3.45-3.16 1.9-8.03 5.62-10.81 8.25-2.78 2.63-6.95 7.37-9.25 10.53-2.3 3.16-4.19 6.2-4.19 6.75 0 0.55-0.75 2.46-1.67 4.25-0.92 1.79-2.04 4.04-2.5 5-0.46 0.96-1.35 4.79-1.99 8.5-0.64 3.71-1.17 9-1.19 11.75-0.01 2.75 0.32 7.25 0.75 10 0.42 2.75 1.63 8.04 2.69 11.75 1.05 3.71 2.36 6.97 2.91 7.25 0.55 0.28 1 1.17 1 2 0 0.83 2.62 4.99 5.82 9.25 3.21 4.26 7.82 9.42 10.25 11.47 2.44 2.04 4.99 3.73 5.68 3.75 0.69 0.02 1.25 0.48 1.25 1.03 0 0.55 1.13 1.22 2.5 1.5 1.38 0.28 2.5 0.95 2.5 1.5 0 0.55 0.79 0.99 1.75 0.98 0.96-0.01 2.65 0.65 3.75 1.47 1.1 0.82 3.13 1.52 4.5 1.55 1.38 0.04 3.63 0.71 5 1.5 1.75 1 5.89 1.44 13.75 1.46 7.85 0.03 12.38-0.42 15-1.48 2.06-0.84 4.99-1.52 6.5-1.5 1.51 0.01 2.98-0.43 3.25-0.98 0.27-0.55 1.96-1.3 3.75-1.66 1.79-0.36 6.63-2.4 10.75-4.53 4.13-2.13 8.63-4.81 10-5.96l2.5-2.07c0-49.08-0.25-53.75-1.5-55.17-1.32-1.5-3.94-1.69-22.18-1.65-16.97 0.03-20.96 0.31-22.25 1.54-1.27 1.21-1.58 4.05-1.61 14.75-0.04 9.62 0.31 13.57 1.25 14.43 0.71 0.65 3.99 1.33 7.29 1.5 5.73 0.31 6.01 0.44 6.25 3.07 0.14 1.53-0.3 2.91-1 3.11-0.69 0.2-3.5 1.1-6.25 2.01-2.75 0.9-7.25 1.63-10 1.63-2.75-0.01-6.35-0.7-8-1.54-1.65-0.84-3.45-1.5-4-1.47-0.55 0.03-3.35-2.1-6.21-4.72-2.87-2.62-6.2-6.57-7.4-8.77-1.2-2.2-2.72-6.7-3.38-10-0.82-4.17-0.89-7.68-0.23-11.5 0.52-3.03 1.98-7.75 3.24-10.5 1.26-2.75 3.38-6.12 4.7-7.5 1.33-1.37 3.28-3.07 4.34-3.76 1.07-0.69 2.61-1.52 3.44-1.84 0.83-0.32 2.59-1.1 3.91-1.74 1.33-0.64 6.32-1.16 11.1-1.16 4.86 0 9.3 0.49 10.09 1.11 0.77 0.61 2.64 1.4 4.15 1.75 1.51 0.35 2.75 1.09 2.75 1.64 0 0.55 0.9 1 2 1 1.1 0 2.23 0.67 2.5 1.5 0.27 0.83 0.95 1.5 1.5 1.5 0.55 0 2.01 0.92 3.25 2.05 1.59 1.45 2.99 1.86 4.75 1.42 1.38-0.35 2.54-0.71 2.6-0.8 0.05-0.09 2.97-3.91 6.5-8.48 3.52-4.57 7.03-9.3 7.8-10.5 0.78-1.23 1.14-3.29 0.82-4.69-0.37-1.58-2.9-4.15-6.9-6.99-3.48-2.48-8.12-5.32-10.32-6.31-2.2-1-5.24-2.46-6.75-3.26-1.51-0.79-3.99-1.43-5.5-1.42-1.51 0.01-3.33-0.56-4.05-1.25-0.88-0.86-5.41-1.35-14-1.53-9.32-0.18-13.76 0.14-16.7 1.24z"/>
		<path id="Path 10" class="s3" d="m62 4.98c-1.92 0.48-5.08 1.28-7 1.78-1.92 0.5-4.63 1.51-6 2.23-1.38 0.73-3.17 1.7-4 2.17-0.83 0.46-2.4 1.24-3.5 1.73-1.1 0.49-4.21 2.85-6.91 5.25-2.69 2.4-6.76 6.84-9.02 9.86-2.27 3.02-4.97 7.3-6 9.5-1.02 2.2-2.25 4.79-2.72 5.75-0.47 0.96-1.51 6.14-2.31 11.5-1.2 7.94-1.37 18.66-0.95 57.75 0.48 43.56 0.68 48.12 2.22 49.27 0.93 0.69 2.59 1.25 3.69 1.24 1.1-0.01 3.35-0.71 5-1.55 1.65-0.84 3.56-1.51 4.25-1.49 0.69 0.02 1.48-0.65 1.75-1.47 0.27-0.82 1.18-1.5 2-1.5 0.83 0 3.33-2.36 5.57-5.25 2.24-2.89 4.95-7.72 6.01-10.75 1.79-5.09 1.93-8.51 1.93-45.75-0.01-22.14 0.33-40.42 0.74-40.62 0.41-0.2 1.12-1.66 1.57-3.25 0.45-1.58 2.47-4.6 4.5-6.7 2.02-2.11 5.59-4.69 7.93-5.75 2.34-1.06 6.25-2.27 8.69-2.68 4.21-0.71 4.41-0.89 3.75-3.41q-0.69-2.67 0.81-4.38c0.83-0.94 3.64-2.78 6.25-4.08 3.26-1.64 7.81-2.69 14.5-3.38 5.36-0.55 10.99-1.22 12.5-1.5 1.51-0.27 2.77-0.84 2.79-1.25 0.03-0.41-0.53-1.27-1.25-1.9-0.71-0.64-3.54-2.34-6.29-3.78-2.75-1.44-5.45-2.59-6-2.55-0.55 0.04-1.67-0.65-2.5-1.52-0.83-0.87-2.4-1.56-3.5-1.53-1.1 0.04-2.59-0.51-3.31-1.2-0.85-0.83-4.87-1.34-11.5-1.47-5.6-0.1-11.77 0.2-13.69 0.68z"/>
	</g>
</svg>